<svg aria-hidden="true" style="position: absolute; width: 0; height: 0; overflow: hidden;" version="1.1" xmlns="http://www.w3.org/2000/svg" xmlns:xlink="http://www.w3.org/1999/xlink">
<defs>

<!--Facebook icon-->
<symbol id="icon-facebook" viewBox="0 0 32 32">
<path d="M10.3819 0.0774643C7.29014 0.576983 5.35311 2.56211 4.7741 5.82452C4.69574 6.266 4.66747 7.00012 4.64464 9.188L4.61537 11.9867H2.30772H0V14.8324V17.678H2.31403H4.62807V24.839V32H7.50497H10.3819V24.839V17.678H12.6021C13.8232 17.678 14.8223 17.6617 14.8223 17.6419C14.8223 17.6221 14.9771 16.3719 15.1663 14.8636C15.3555 13.3554 15.5103 12.0911 15.5103 12.0541C15.5103 12.0071 14.7347 11.9867 12.9428 11.9867H10.3753L10.3957 9.46944C10.4137 7.24084 10.4287 6.91987 10.5266 6.67071C10.7712 6.04823 11.1409 5.69875 11.8044 5.46303C12.1299 5.34739 12.3486 5.3327 14.0875 5.30956L16.0106 5.28392V2.75449C16.0106 0.786747 15.9932 0.219121 15.9324 0.198545C15.725 0.128248 14.0625 0.0336228 12.6021 0.0089189C11.334 -0.0125328 10.8453 0.00260221 10.3819 0.0774643Z"/>
</symbol>

<!--Instagram icon-->
<symbol id="icon-instagram" viewBox="0 0 32 32">
<path d="M10.0024 0.0357817C7.93942 0.122364 6.52107 0.384175 5.32719 0.898851C4.20988 1.38056 3.54644 1.82442 2.72265 2.64132C1.60559 3.74906 0.909496 4.99393 0.472456 6.66558C0.0869654 8.1401 0.000946287 9.83777 7.89686e-06 15.9869C-0.000930494 22.034 0.0813976 23.7519 0.442803 25.2262C1.34385 28.9017 4.03621 31.2393 7.99134 31.7802C9.12773 31.9356 11.5065 32.0006 16.0455 32C20.2665 31.9996 22.7006 31.9398 23.796 31.8098C26.0346 31.5441 27.7902 30.7713 29.1681 29.445C30.7277 27.9438 31.5525 26.1455 31.8544 23.5879C31.9726 22.5861 31.9715 9.23514 31.8531 8.29212C31.6126 6.37743 31.0383 4.80199 30.1409 3.59516C29.6949 2.9954 28.7473 2.08448 28.1507 1.68191C26.8044 0.773544 25.1868 0.269191 23.0521 0.0922728C22.0459 0.00888113 11.71 -0.0358488 10.0024 0.0357817ZM23.5355 3.05621C25.3183 3.3204 26.3191 3.7657 27.281 4.72273C27.9049 5.34338 28.2534 5.89566 28.5566 6.74415C29.072 8.18627 29.1183 8.94937 29.1184 16.0182C29.1184 20.0906 29.0956 22.0469 29.0401 22.7078C28.8581 24.8767 28.4268 26.047 27.4096 27.1319C26.3574 28.2539 25.0341 28.8137 22.9896 29.0016C21.8822 29.1033 12.7311 29.1532 10.6245 29.0689C9.67306 29.0309 8.67562 28.9692 8.40805 28.932C7.22499 28.7675 6.07846 28.3504 5.36954 27.8267C4.92149 27.4957 4.21119 26.7249 3.94544 26.2814C3.42307 25.4095 3.10633 24.1773 3.0028 22.6141C2.81468 19.7745 2.8758 10.0251 3.09188 8.41248C3.31609 6.73833 3.83252 5.6147 4.81483 4.66367C5.89485 3.61806 7.30776 3.1092 9.49784 2.97701C9.96797 2.94861 13.1678 2.93247 16.6085 2.9411C21.9452 2.95449 22.9631 2.97138 23.5355 3.05621ZM23.7229 5.73012C23.0128 6.08496 22.6792 6.63304 22.6777 7.44757C22.6766 8.03719 22.8172 8.38646 23.2159 8.78521C23.614 9.18328 23.9639 9.32435 24.5536 9.32435C24.9746 9.32435 25.1104 9.29663 25.4095 9.14981C26.0427 8.83889 26.4004 8.29293 26.4479 7.56512C26.49 6.9215 26.35 6.54377 25.9042 6.09854C25.4898 5.68458 25.1309 5.53951 24.5212 5.53951C24.1818 5.53951 24.0335 5.57491 23.7229 5.73012ZM14.5475 7.89261C12.9034 8.1894 11.4496 8.96182 10.2193 10.192C8.59617 11.8151 7.80961 13.7068 7.80961 15.9869C7.80961 17.3607 8.0676 18.4925 8.64058 19.6321C10.3892 23.1098 14.2428 24.8936 17.9936 23.9613C19.4657 23.5955 20.6076 22.9585 21.7119 21.8876C22.7072 20.9224 23.3768 19.871 23.7967 18.6144C24.0989 17.7096 24.2095 17.006 24.2095 15.9869C24.2095 14.9738 24.0989 14.2641 23.8033 13.38C23.4009 12.1761 22.8192 11.2245 21.9137 10.2892C20.6775 9.01199 19.1322 8.1847 17.4292 7.88836C16.734 7.76737 15.229 7.76956 14.5475 7.89261ZM17.0253 10.7575C19.8941 11.3084 21.7941 14.1227 21.2427 17.0045C20.9081 18.7533 19.6246 20.3028 17.9859 20.9365C17.1857 21.2459 16.7204 21.3203 15.7952 21.2869C15.1389 21.2632 14.8794 21.2248 14.4502 21.0878C12.5515 20.4821 11.1726 18.9549 10.7816 17.0249C10.631 16.2818 10.6896 15.126 10.9136 14.4229C11.5067 12.5606 13.076 11.1357 14.9436 10.7636C15.5007 10.6525 16.4642 10.6498 17.0253 10.7575Z" />
</symbol>

<!--Pinterest icon-->
<symbol id="icon-pinterest" viewBox="0 0 32 32">
<path d="M11.5362 0.0652057C10.7349 0.136461 9.63058 0.338603 8.81876 0.562746C4.85301 1.6574 1.73613 4.53719 0.502159 8.24668C0.088438 9.49046 0.00186852 10.0561 5.58709e-05 11.5282C-0.00125673 12.638 0.0198699 12.9473 0.136817 13.5299C0.554538 15.6106 1.47967 17.1533 2.8361 18.0308C3.8063 18.6584 4.31734 18.7158 4.55073 18.2232C4.71444 17.8776 5.0999 16.2341 5.05721 16.0636C5.03515 15.9755 4.85007 15.6821 4.64587 15.4116C4.17902 14.7931 3.88274 14.1806 3.70342 13.4633C3.51896 12.7253 3.50771 11.2112 3.67998 10.3093C4.35791 6.76087 6.90411 4.13034 10.3974 3.36935C12.3746 2.93862 14.583 3.1142 16.2694 3.83632C18.3525 4.72821 19.714 6.49528 20.1195 8.83303C20.2444 9.55278 20.2441 11.0305 20.1189 12.122C19.5859 16.7684 17.2801 19.9386 14.4367 19.9344C12.9027 19.9321 11.7206 19.0018 11.4599 17.5915C11.3403 16.9443 11.421 16.5545 12.2365 13.8409C13.0479 11.1412 13.2089 10.2938 13.0844 9.37877C12.8733 7.82658 11.6884 6.91851 10.2058 7.17278C8.59818 7.44842 7.41059 8.99642 7.15188 11.1532C7.03462 12.131 7.19732 13.5158 7.53385 14.4034C7.59898 14.5753 7.6523 14.7699 7.6523 14.8359C7.65236 14.9018 7.12957 17.1661 6.49058 19.8675C5.85165 22.569 5.27486 25.0734 5.20879 25.4329C4.93445 26.9272 4.92458 29.1714 5.18372 31.1457C5.3278 32.2435 5.44556 32.2644 6.14505 31.317C7.42446 29.584 8.42448 27.7632 8.89458 26.3106C8.9669 26.0872 9.31649 24.7702 9.67146 23.384L10.3168 20.8637L10.4975 21.1244C11.009 21.8625 12.2782 22.664 13.3716 22.9395C14.7161 23.2782 16.6008 23.1021 18.1291 22.4949C19.2502 22.0497 20.1627 21.433 21.1258 20.47C22.1243 19.4714 22.901 18.3119 23.4686 16.9726C24.3348 14.9287 24.6799 13.1566 24.681 10.7469C24.6817 9.45865 24.6647 9.19988 24.5427 8.64271C24.1092 6.66311 23.2314 4.99485 21.8743 3.5713C19.3485 0.921775 15.7249 -0.307074 11.5362 0.0652057Z" />
</symbol>

<!--Whatsapp icon-->
<symbol id="icon-whatsapp" viewBox="0 0 32 32">
<path d="M15.0272 0.0189752C14.924 0.0334921 14.572 0.0752907 14.2451 0.111958C8.98715 0.701206 4.16774 4.02914 1.7911 8.71171C-0.46484 13.1566 -0.436808 18.5471 1.866 23.0842L2.23736 23.8158L1.11224 27.9014C0.493462 30.1485 -0.00705799 31.9929 7.53109e-05 31.9999C0.00720861 32.0071 1.90592 31.5189 4.21942 30.9152L8.42588 29.8176L9.00524 30.0995C10.6692 30.909 12.4109 31.4273 14.2138 31.6496C15.1257 31.762 17.0594 31.7472 17.9994 31.6205C23.86 30.8308 28.8038 27.0306 30.9114 21.6956C31.677 19.7576 31.9839 18.0794 31.9815 15.845C31.98 14.3572 31.91 13.6638 31.6346 12.4035C31.0661 9.80279 29.6787 7.13 27.9252 5.25719C27.6741 4.98901 27.4429 4.72301 27.4114 4.66601C27.3278 4.51483 26.4403 3.73229 25.7898 3.23622C24.5826 2.31571 23.0009 1.44732 21.5974 0.934603C20.7772 0.634942 19.3483 0.274648 18.4375 0.137801C17.8155 0.0443798 15.437 -0.0385291 15.0272 0.0189752ZM18.281 2.79439C21.0892 3.28202 23.4659 4.51183 25.4808 6.51972C27.4304 8.46267 28.6471 10.8153 29.1709 13.655C29.3291 14.5125 29.3633 16.528 29.2361 17.4948C28.8058 20.764 27.2595 23.6382 24.8002 25.74C22.4135 27.7798 19.576 28.8931 16.4942 28.9987C13.984 29.0847 11.7398 28.5303 9.48361 27.2668L8.81752 26.8938L6.33776 27.5374C4.93688 27.9009 3.85838 28.1518 3.85888 28.1138C3.85938 28.0769 4.15384 26.9828 4.5132 25.6824L5.16665 23.318L4.89571 22.8979C2.18374 18.6919 2.12755 13.3673 4.74904 9.00267C5.795 7.26115 7.43197 5.60284 9.1454 4.54893C9.73408 4.18689 11.0955 3.54113 11.7041 3.33527C12.6423 3.01796 13.8563 2.75754 14.9021 2.6491C15.55 2.58196 17.5539 2.66812 18.281 2.79439ZM9.8337 8.61003C9.32361 8.84361 8.56754 9.85216 8.21776 10.7657C8.02898 11.2587 8.02184 11.3124 8.02084 12.2471C8.0199 13.1837 8.02691 13.2373 8.22627 13.8114C8.60571 14.9039 9.20879 15.9119 10.2638 17.217C12.9856 20.5843 14.7593 21.8656 18.3749 23.0767C20.0918 23.6517 21.4948 23.5027 22.8145 22.6051C23.6483 22.038 23.9723 21.4844 24.1269 20.3633C24.2121 19.7449 24.1606 19.5265 23.8869 19.3454C23.7622 19.2629 23.5622 19.1758 23.4423 19.1519C23.3224 19.128 22.7315 18.8708 22.1292 18.5803C20.7602 17.9201 20.4962 17.816 20.1903 17.816C19.9528 17.816 19.9278 17.8381 19.3573 18.5513C18.3702 19.7853 18.3042 19.849 18.0185 19.8415C17.6887 19.8328 16.345 19.188 15.5632 18.6633C14.2446 17.7782 12.9867 16.4309 12.2445 15.1088C11.9901 14.6557 12.0104 14.5649 12.4908 14.0067C12.9414 13.4831 13.3465 12.8674 13.3998 12.6252C13.4569 12.3651 12.053 8.98659 11.7671 8.69607L11.567 8.49271L10.8255 8.49408C10.2417 8.49515 10.0307 8.5198 9.8337 8.61003Z"/>
</symbol>

<!--Web icon-->
<symbol id="icon-web" viewBox="0 0 32 32">
<path d="M14.5541 0.0368935C11.5075 0.343834 8.7792 1.40695 6.33176 3.2407C5.55448 3.82301 4.19395 5.14678 3.54406 5.95287C0.174666 10.1324 -0.877111 15.7606 0.75504 20.8776C1.34694 22.7334 2.32212 24.5391 3.56698 26.0844C4.19583 26.8651 5.56419 28.1935 6.33176 28.7687C7.95401 29.9842 9.84131 30.9231 11.7001 31.4394C13.2303 31.8645 14.3266 32.0045 16.0885 31.9999C17.2096 31.9969 17.6768 31.9684 18.3744 31.8602C21.0869 31.4396 23.5435 30.4083 25.6969 28.7862C26.4719 28.2024 27.8375 26.8843 28.4539 26.1251C29.8859 24.3613 30.9986 22.1511 31.5602 19.9544C31.9088 18.5912 32.0189 17.6427 32.0189 16.0047C32.0189 14.3676 31.9086 13.4169 31.5611 12.0591C30.9982 9.85973 29.8858 7.64777 28.4587 5.89024C27.8374 5.12511 26.4651 3.79896 25.6994 3.22372C23.4351 1.52275 20.8366 0.463078 18.0299 0.0960771C17.3102 0.00200967 15.2488 -0.0331247 14.5541 0.0368935ZM15.0238 5.54579V8.9277L14.8516 8.92701C14.5294 8.92582 13.1158 8.68383 12.5187 8.5277C11.9018 8.36637 11.0538 8.08072 10.5476 7.86378C10.1968 7.71341 10.1877 7.77447 10.7293 6.64178C11.6173 4.78479 12.6171 3.51244 13.7923 2.74393C14.163 2.5015 14.8336 2.17458 14.9768 2.1665C15.0026 2.16506 15.0238 3.68573 15.0238 5.54579ZM17.6338 2.38601C18.9843 2.9801 20.2929 4.48994 21.3222 6.64178C21.8654 7.77735 21.8563 7.71278 21.4945 7.86791C20.9433 8.10427 20.001 8.41302 19.3401 8.57392C18.6891 8.73243 17.5033 8.9277 17.1921 8.9277H17.0279V5.54159V2.15541L17.1688 2.19944C17.2463 2.22368 17.4556 2.3076 17.6338 2.38601ZM9.91653 3.91382C9.48965 4.55275 8.79824 5.85022 8.55149 6.4755L8.44408 6.74768L8.27373 6.63727C8.09562 6.52184 7.29404 5.9121 6.98359 5.65589L6.80329 5.50708L7.14016 5.21029C7.62609 4.78222 8.94103 3.91852 9.66908 3.5492C10.0135 3.37447 10.3132 3.23086 10.3349 3.23005C10.3566 3.22924 10.1684 3.53693 9.91653 3.91382ZM22.3858 3.54851C22.7285 3.72456 23.2907 4.05192 23.6351 4.27606C24.2897 4.70193 25.2253 5.41878 25.2297 5.49775C25.2322 5.54453 24.1149 6.42252 23.7871 6.63126L23.607 6.74605L23.4999 6.47469C23.2534 5.85022 22.5618 4.55238 22.1351 3.91382C21.8833 3.53693 21.6965 3.22855 21.72 3.22855C21.7435 3.22855 22.0431 3.37253 22.3858 3.54851ZM5.92881 7.4287C6.22924 7.67207 6.76107 8.06606 7.11073 8.30437L7.74634 8.73756L7.59697 9.318C7.21513 10.8015 6.92284 12.6754 6.83222 14.2204L6.78819 14.9713L4.4749 14.9878C3.20255 14.9968 2.14169 14.9827 2.11745 14.9565C2.09321 14.9302 2.1105 14.6128 2.15597 14.2511C2.42633 12.099 3.19678 10.0296 4.39298 8.24268C4.72447 7.74748 5.30729 6.98623 5.35489 6.98623C5.3701 6.98623 5.62838 7.18533 5.92881 7.4287ZM27.0459 7.39607C27.8037 8.36048 28.5863 9.72753 29.0547 10.9056C29.4658 11.9394 29.8751 13.6852 29.9419 14.6895L29.9606 14.9713H27.612H25.2635L25.2195 14.2204C25.1288 12.6756 24.8365 10.8014 24.4548 9.31838L24.3055 8.73838L25.035 8.23779C25.4362 7.96248 25.9618 7.56942 26.2029 7.36438C26.444 7.1594 26.6598 6.99043 26.6826 6.98892C26.7052 6.98742 26.8688 7.17067 27.0459 7.39607ZM10.3816 9.99013C11.6269 10.4548 12.8191 10.7441 14.147 10.9039C14.5431 10.9515 14.9029 10.9914 14.9464 10.9925C15.0088 10.994 15.022 11.4142 15.009 12.9829L14.9925 14.9713L11.9057 14.9875L8.81903 15.0038L8.85717 14.4239C8.97297 12.6633 9.46961 9.74187 9.65311 9.74187C9.68787 9.74187 10.0157 9.8536 10.3816 9.99013ZM22.5938 10.2899C22.8711 11.4792 23.0804 12.9333 23.1977 14.4865L23.2368 15.0038L20.148 14.9875L17.0592 14.9713L17.0427 12.9875L17.0261 11.0036L17.3871 10.9644C19.1434 10.7736 20.8871 10.3591 21.9865 9.87094C22.4396 9.66978 22.4512 9.67774 22.5938 10.2899ZM6.83222 17.7889C6.92284 19.334 7.21513 21.2079 7.59697 22.6914L7.74634 23.2718L7.11073 23.705C6.76107 23.9433 6.22354 24.3419 5.91616 24.5909L5.35726 25.0436L5.14765 24.7985C4.82468 24.4208 4.11178 23.3591 3.78931 22.7755C2.92849 21.2175 2.37604 19.5197 2.15672 17.7583C2.11163 17.3966 2.08739 17.0792 2.1028 17.0529C2.11814 17.0267 3.17868 17.0126 4.45943 17.0216L6.78819 17.038L6.83222 17.7889ZM15.009 19.0265C15.022 20.5952 15.0088 21.0154 14.9464 21.0169C14.9029 21.0179 14.5431 21.0578 14.147 21.1055C12.8191 21.2652 11.6269 21.5545 10.3816 22.0192C10.0157 22.1558 9.68787 22.2675 9.65311 22.2675C9.46961 22.2675 8.97297 19.346 8.85717 17.5855L8.81903 17.0055L11.9057 17.0218L14.9925 17.038L15.009 19.0265ZM23.1976 17.5234C23.0423 19.5797 22.5864 22.268 22.393 22.2671C22.3528 22.2669 22.024 22.1516 21.6624 22.0108C20.5161 21.5645 18.9839 21.2183 17.388 21.045L17.0279 21.0059V19.0481C17.0279 17.9713 17.0467 17.0714 17.0697 17.0485C17.0926 17.0255 18.4896 17.0067 20.174 17.0067H23.2366L23.1976 17.5234ZM29.9419 17.3199C29.8751 18.3242 29.4658 20.0699 29.0547 21.1038C28.7502 21.8695 28.204 22.9254 27.7656 23.5956C27.3794 24.186 26.7522 25.0231 26.696 25.0231C26.6808 25.0231 26.4508 24.8438 26.1851 24.6246C25.9193 24.4054 25.3877 24.0108 25.0036 23.7476L24.3053 23.2692L24.4241 22.8154C24.8158 21.318 25.1353 19.3087 25.2059 17.8987C25.2261 17.4942 25.2536 17.1277 25.267 17.0843C25.2862 17.0221 25.7895 17.0087 27.626 17.0216L29.9606 17.038L29.9419 17.3199ZM15.0238 26.4678V29.8539L14.8829 29.8124C14.5132 29.7036 13.809 29.3027 13.3502 28.9399C12.393 28.183 11.5611 27.0602 10.796 25.4928C10.1777 24.226 10.1905 24.2986 10.5572 24.1414C11.7594 23.626 13.8141 23.1145 14.7889 23.088L15.0238 23.0817V26.4678ZM18.0219 23.179C19.2005 23.3513 20.4848 23.7071 21.4945 24.1411C21.8563 24.2966 21.8654 24.2321 21.3222 25.3676C20.4349 27.2226 19.4366 28.4927 18.2592 29.2648C17.9045 29.4974 17.1859 29.8455 17.0605 29.8455C17.0425 29.8455 17.0279 28.3236 17.0279 26.4636V23.0817H17.1921C17.2824 23.0817 17.6558 23.1254 18.0219 23.179ZM8.72666 25.9211C9.10837 26.7686 9.53055 27.5333 9.9858 28.2015C10.2029 28.5201 10.3679 28.7808 10.3525 28.7808C10.3372 28.7808 10.0167 28.6264 9.6404 28.4377C8.86494 28.0487 7.64131 27.2449 7.14185 26.7961L6.80654 26.4949L7.23103 26.1504C7.77195 25.7114 8.39999 25.2676 8.43318 25.3008C8.44727 25.3148 8.57936 25.594 8.72666 25.9211ZM24.5997 25.9793C24.9476 26.2468 25.2309 26.4864 25.2293 26.5116C25.2246 26.5906 24.4233 27.2057 23.7012 27.6848C23.1231 28.0683 21.8292 28.7808 21.711 28.7808C21.6924 28.7808 21.8833 28.4724 22.1351 28.0955C22.5618 27.457 23.2534 26.1591 23.4999 25.5347L23.607 25.2633L23.7871 25.3781C23.8862 25.4412 24.2519 25.7117 24.5997 25.9793Z" />
</symbol>

<!--Pix icon-->
<symbol id="icon-pix" viewBox="0 0 32 32">
<path d="M15.6063 0.0173346C14.745 0.0868689 13.9163 0.401753 13.158 0.947611C13.0417 1.03129 11.5495 2.4942 9.84192 4.19855L6.73725 7.29727L7.33503 7.34178C8.6407 7.43895 9.47845 7.67869 10.2028 8.16247C10.3626 8.26921 11.3853 9.26095 13.1388 11.0096C14.6244 12.4912 15.8779 13.7111 15.9376 13.7335C16.0962 13.793 16.3727 13.783 16.5136 13.7127C16.5813 13.679 17.8128 12.4782 19.2504 11.0443C21.0638 9.23554 21.9584 8.37026 22.1717 8.21859C22.9324 7.67776 23.7545 7.41512 24.8541 7.36153L25.3841 7.3357L22.2403 4.20097C19.9299 1.89715 19.0202 1.01438 18.8081 0.87062C17.8309 0.208218 16.764 -0.0761083 15.6063 0.0173346ZM4.33645 9.62942C3.93477 10.038 3.02486 10.9604 2.31449 11.6792C0.99353 13.0157 0.792268 13.2549 0.502792 13.8317C-0.0774303 14.988 -0.160918 16.4127 0.280697 17.6226C0.430221 18.0323 0.686218 18.5073 0.944252 18.8537C1.05999 19.0091 2.03362 20.0241 3.10789 21.1093L5.06108 23.0824L6.48613 23.0667C7.80363 23.0522 7.9344 23.0447 8.21869 22.9671C8.58139 22.868 9.09323 22.6307 9.36814 22.4342C9.47588 22.3572 10.7575 21.1064 12.2162 19.6547C13.8631 18.0159 14.9356 16.9772 15.0457 16.9145C15.7418 16.5185 16.6008 16.5049 17.3285 16.8784C17.5731 17.004 17.842 17.2599 20.2882 19.6945C23.168 22.5606 23.2072 22.5953 23.8206 22.8261C24.3268 23.0167 24.5246 23.0376 25.8178 23.0376H27.0181L28.9319 21.1213C29.9846 20.0674 30.9457 19.0716 31.0678 18.9086C31.487 18.3488 31.7843 17.6735 31.9405 16.926C32.0244 16.5248 32.034 15.6164 31.9589 15.1963C31.8316 14.4843 31.4917 13.6948 31.0591 13.1062C30.9173 12.9133 30.0934 12.0548 28.903 10.8597L26.9764 8.92546L25.7272 8.94111C24.5925 8.95529 24.4498 8.96444 24.1705 9.04051C23.8255 9.13449 23.3973 9.32683 23.1233 9.51091C23.0227 9.57845 21.7297 10.8388 20.2498 12.3117C17.308 15.2397 17.4071 15.1538 16.7867 15.3126C16.1573 15.4735 15.4672 15.3565 14.9313 14.9978C14.8333 14.9322 13.551 13.6812 12.0817 12.2178C9.32117 9.46836 9.272 9.42393 8.71719 9.17858C8.19155 8.9461 7.99567 8.92216 6.46976 8.90359L5.06677 8.88653L4.33645 9.62942ZM15.9255 18.2756C15.8727 18.2963 14.6186 19.5209 13.1388 20.9969C11.4874 22.6439 10.359 23.7399 10.2175 23.8343C9.47369 24.3303 8.64266 24.5682 7.32492 24.6623L6.66179 24.7097L9.78023 27.804C11.805 29.813 13.0027 30.9732 13.1954 31.1119C14.0305 31.7132 14.9307 32 15.9832 32C17.0598 32 18.0288 31.6808 18.8668 31.0502C19.1511 30.8361 25.3044 24.7532 25.3044 24.6861C25.3044 24.6674 25.1552 24.652 24.973 24.652C24.303 24.652 23.4641 24.4734 22.8911 24.2086C22.1989 23.8888 22.1174 23.816 19.2696 20.9774C17.8003 19.5128 16.5495 18.2961 16.49 18.2737C16.357 18.2235 16.0551 18.2246 15.9255 18.2756Z" />
</symbol>

<!--qrcode icon-->
<symbol id="icon-qrcode" viewBox="0 0 32 32">
<path d="M0 5.59375V11.1875H7.1875H14.375V12.7812V14.375H12H9.625V16V17.625H12H14.375V16V14.375H16H17.625V16V17.625H18.4062H19.1875V19.2188V20.8125H17.5938H16V23.2195V25.6265L13.6094 25.6101L11.2188 25.5938L11.2024 23.2031L11.186 20.8125H5.593H0V26.4062V32H5.59375H11.1875V30.4062V28.8125H13.5938H16V30.4062V32H19.1875H22.375V30.4062V28.8125H24H25.625V30.4062V32H28H30.375V30.4062V28.8125H29.5938H28.8125V27.2188V25.625H30.4062H32V24V22.375H30.4067H28.8134L28.7973 18.3906L28.7812 14.4062L23.2042 14.3903L17.6271 14.3743L17.6104 12.7966L17.5938 11.2188L15.9844 11.2021L14.375 11.1854V8.78019V6.375H16H17.625V3.1875V0H16H14.375V3.1875V6.375H12.7812H11.1875V3.1875V0H5.59375H0V5.59375ZM20.8125 5.59375V11.1875H26.4062H32V5.59375V0H26.4062H20.8125V5.59375ZM8 5.59375V8H5.59375H3.1875V5.59375V3.1875H5.59375H8V5.59375ZM28.8125 5.59375V8H26.4062H24V5.59375V3.1875H26.4062H28.8125V5.59375ZM0 16V17.625H3.1875H6.375V16V14.375H3.1875H0V16ZM25.625 20V22.375H27.2188H28.8125V24V25.625H24H19.1875V27.2188V28.8125H17.5938H16V27.2188V25.625H17.5938H19.1875V23.2188V20.8125H20.7812H22.375V19.2188V17.625H24H25.625V20ZM8 26.4062V28.8125H5.59375H3.1875V26.4062V24H5.59375H8V26.4062Z"/>
</symbol>

</defs>
</svg>